<svg data-v-423bf9ae="" xmlns="http://www.w3.org/2000/svg" viewBox="0 0 357 90" class="iconLeftSlogan"><!----><!----><!----><g data-v-423bf9ae="" id="8fe596c3-9903-4de5-84f3-cffd0a3cffeb" fill="#EFFF88" transform="matrix(6.122449456230433,0,0,6.122449456230433,132.83620978759564,-11.816328097660907)"><path d="M-0.29 3.57L-0.29 1.93L5.46 1.93L5.46 3.57L3.55 3.57L3.55 10.34L4.42 10.34L4.42 10.54L3.55 10.54L3.55 11.29L3.04 11.29L3.04 11.55L3.40 11.55L3.40 11.73L1.66 11.73Q1.63 11.73 1.63 11.70L1.63 11.70L1.63 3.57L-0.29 3.57ZM3.54 10.34L2.88 10.34L2.88 10.54L3.54 10.54L3.54 10.34ZM5.68 6.80L5.68 2.00L10.47 2.00L10.47 3.60Q10.47 3.63 10.44 3.63L10.44 3.63L7.59 3.63L7.59 5.74L10.14 5.74L10.14 5.76Q10.14 5.84 10.12 6.79L10.12 6.79Q10.10 6.79 10.10 6.80L10.10 6.80L10.21 6.80L10.21 7.29L8.00 7.29L8.00 9.29L7.41 9.29L7.41 9.49L8.00 9.49L8.00 10.10L10.51 10.10L10.51 10.32L10.31 10.32L10.31 11.52L7.31 11.52L7.31 11.73L5.89 11.73L5.89 8.24L5.68 8.24L5.68 7.01L4.12 7.01L4.12 6.80L5.68 6.80ZM6.49 6.80L5.69 6.80L5.69 7.01L6.49 7.01L6.49 6.80ZM11.89 6.80L11.89 2.00L16.69 2.00L16.69 3.60Q16.69 3.63 16.65 3.63L16.65 3.63L13.81 3.63L13.81 5.74L16.36 5.74L16.36 5.76Q16.36 5.84 16.33 6.79L16.33 6.79Q16.31 6.79 16.31 6.80L16.31 6.80L16.43 6.80L16.43 7.29L14.22 7.29L14.22 9.29L13.62 9.29L13.62 9.49L14.22 9.49L14.22 10.10L16.72 10.10L16.72 10.32L16.52 10.32L16.52 11.52L13.53 11.52L13.53 11.73L12.11 11.73L12.11 8.24L11.89 8.24L11.89 7.01L10.34 7.01L10.34 6.80L11.89 6.80ZM12.71 6.80L11.91 6.80L11.91 7.01L12.71 7.01L12.71 6.80ZM20.95 7.57L20.95 1.94L22.83 1.94L22.83 5.15L22.64 5.15L22.64 8.65L22.83 8.65L22.83 11.46L18.32 11.46L18.32 10.86L17.46 10.86L17.46 9.75L17.98 9.75L17.98 9.56L17.46 9.56L17.46 9.31L19.31 9.31L19.31 9.99L20.97 9.99L20.97 9.05Q20.97 8.57 20.95 7.72L20.95 7.72L19.50 7.72L19.50 7.57L20.95 7.57ZM21.52 7.57L20.97 7.57L20.97 7.72L21.52 7.72L21.52 7.57ZM19.36 11.73L19.36 11.60L21.76 11.60L21.76 11.73L19.36 11.73ZM24.62 7.57L26.30 1.96L27.95 1.96Q27.98 2.10 29.54 7.29L29.54 7.29L29.85 7.29L29.85 10.51L29.17 10.51L29.17 10.76L29.85 10.76L29.85 11.45L28.03 11.45L28.03 9.47L25.81 9.47L25.81 10.32L24.90 10.32L24.90 11.73L23.25 11.73L23.25 11.63L23.38 11.63L23.38 10.32L24.06 10.32L24.06 7.57L24.62 7.57ZM27.10 4.71L27.07 4.71L27.07 4.72Q26.86 5.89 26.25 8.40L26.25 8.40L27.78 8.40L27.78 7.29L27.65 7.29Q27.10 4.92 27.10 4.71L27.10 4.71ZM22.77 7.57L22.77 7.28L24.06 7.28L24.06 7.57L22.77 7.57ZM28.03 11.73L28.03 11.57L30.22 11.57L30.22 11.73L28.03 11.73ZM30.42 1.96L30.42 1.96L32.34 1.96Q32.34 3.37 32.83 4.35L32.83 4.35Q33.36 5.64 33.56 6.39L33.56 6.39L33.56 6.41L33.57 6.41Q33.82 5.50 34.59 3.62L34.59 3.62Q34.79 2.72 34.79 1.96L34.79 1.96L36.59 1.96Q36.43 3.43 36.18 4.13L36.18 4.13L35.10 6.59L34.44 6.59L34.44 8.28L33.44 8.28L33.44 8.61L34.44 8.61L34.44 11.73L32.57 11.73Q32.54 11.73 32.54 11.70L32.54 11.70L32.54 10.17L32.24 10.17L32.24 7.46L32.80 7.46L32.80 7.21L32.19 7.21Q32.12 7.12 31.06 4.67L31.06 4.67Q30.61 3.68 30.61 3.49L30.61 3.49L31.42 3.49L31.42 3.14L30.55 3.14Q30.42 2.06 30.42 1.96ZM29.25 3.49L29.25 3.14L30.55 3.14L30.60 3.49L29.25 3.49ZM34.44 8.61L34.44 8.28L35.25 8.28L35.25 8.61L34.44 8.61Z"></path></g><!----><g data-v-423bf9ae="" id="27ba9235-ede6-4404-a8a2-373910c75813" transform="matrix(1.2270273289556992,0,0,1.2270273289556992,-5.593745123326919,-16.011517596540997)" stroke="none" fill="#EFFF88"><path d="M90.512 72.566h4.684v6.547a7.494 7.494 0 01-7.5 7.5H12.184a7.496 7.496 0 01-7.5-7.5v-6.547h4.683V13.265h81.148v59.301zM9.364 75.687H7.802v3.426c0 1.16.46 2.273 1.28 3.098a4.378 4.378 0 003.098 1.28h75.512c1.16 0 2.274-.46 3.098-1.28a4.378 4.378 0 001.281-3.098v-3.426h-31.21v4.684H39.011v-4.684H9.36zm78.027-3.121v-56.18H12.485v56.18zm-29.648 3.121H42.138v1.563h15.605zm28.09-7.8H14.048v-48.38h71.785zm-3.121-45.255H17.169V64.77h65.543zM58.735 55.84l-2.207-2.207 9.93-9.93-9.93-9.93 2.207-2.206 12.137 12.137zM53.102 25.87l3.016.809-9.336 34.852-3.016-.809 9.34-34.852zm-9.75 27.762l-2.207 2.207-12.137-12.137 12.137-12.137 2.207 2.207-9.93 9.93z"></path></g><!----><g data-v-423bf9ae="" id="d2f4456c-4624-447e-9dd9-f39a5e66319c" fill="#EFFF88" transform="matrix(0.6945430764162868,0,0,0.6945430764162868,130.47033702078346,57.527426156020574)"><path d="M2.04 16.24L2.04 16.24Q1.37 16.04 1.11 15.85Q0.85 15.65 0.85 15.36L0.85 15.36Q0.85 15.13 0.98 14.73Q1.11 14.32 1.35 13.77Q1.60 13.22 1.94 12.54Q2.28 11.87 2.72 11.10L2.72 11.10Q2.35 11.09 2.06 11.08Q1.78 11.07 1.60 11.07L1.60 11.07Q1.68 10.86 2.07 10.71Q2.46 10.56 3.11 10.44L3.11 10.44Q3.65 9.53 4.28 8.71Q4.90 7.88 5.53 7.19Q6.16 6.50 6.79 5.97Q7.42 5.45 7.99 5.14L7.99 5.14Q8.01 5.04 8.02 4.97Q8.02 4.90 8.02 4.87L8.02 4.87Q8.22 4.87 8.55 4.97Q8.88 5.07 9.19 5.21Q9.51 5.35 9.75 5.49Q10.00 5.64 10.02 5.74L10.02 5.74Q9.56 6.55 9.11 8.17Q8.67 9.79 8.37 12.04L8.37 12.04Q8.30 12.60 8.25 13.31Q8.20 14.03 8.20 14.91L8.20 14.91Q8.20 15.22 8.20 15.54Q8.20 15.86 8.23 16.21L8.23 16.21Q8.20 16.23 8.18 16.23Q8.15 16.23 8.06 16.23L8.06 16.23Q7.87 16.23 7.61 16.16Q7.35 16.10 7.11 16.01Q6.86 15.92 6.69 15.81Q6.51 15.69 6.47 15.61L6.47 15.61Q6.45 15.43 6.45 15.25Q6.45 15.08 6.45 14.88L6.45 14.88Q6.45 14.01 6.52 13.12Q6.58 12.22 6.73 11.27L6.73 11.27Q6.54 11.26 6.22 11.23Q5.89 11.21 5.50 11.20Q5.10 11.19 4.64 11.16Q4.19 11.14 3.75 11.13L3.75 11.13Q3.42 11.76 3.12 12.38Q2.83 13.01 2.62 13.64L2.62 13.64Q2.38 14.31 2.23 14.98Q2.09 15.65 2.04 16.24ZM7.45 7.83L7.45 7.83Q7.50 7.63 7.58 7.29Q7.66 6.94 7.73 6.57L7.73 6.57Q7.38 6.69 6.95 7.03Q6.52 7.36 6.07 7.86Q5.61 8.36 5.15 8.98Q4.68 9.60 4.24 10.30L4.24 10.30Q5.42 10.21 6.92 10.18L6.92 10.18Q7.03 9.59 7.16 9.01Q7.29 8.43 7.45 7.83ZM16.97 14.24L16.97 14.24Q16.97 14.11 16.99 13.92Q17.01 13.73 17.07 13.42Q17.12 13.10 17.21 12.66Q17.30 12.21 17.44 11.58L17.44 11.58Q17.47 11.44 17.57 11.13Q17.67 10.82 17.83 10.48Q17.99 10.14 18.22 9.81Q18.45 9.49 18.77 9.34L18.77 9.34Q19.01 9.39 19.40 9.63Q19.80 9.86 20.08 10.26L20.08 10.26Q19.75 10.63 19.54 10.99Q19.32 11.35 19.14 11.75Q18.97 12.14 18.82 12.56Q18.68 12.98 18.49 13.44L18.49 13.44Q18.34 13.83 18.21 14.25Q18.09 14.66 18.07 14.97L18.07 14.97Q18.07 15.22 18.07 15.32Q18.06 15.43 17.99 15.43L17.99 15.43Q17.93 15.43 17.77 15.36Q17.60 15.29 17.42 15.14Q17.25 14.99 17.11 14.77Q16.97 14.55 16.97 14.24ZM19.64 8.16L19.64 8.16Q19.64 8.08 19.68 7.91L19.68 7.91Q19.61 7.84 19.57 7.70Q19.52 7.56 19.52 7.45L19.52 7.45Q19.52 7.32 19.55 7.11Q19.59 6.89 19.64 6.64Q19.70 6.38 19.78 6.11Q19.87 5.84 19.95 5.61L19.95 5.61Q20.12 5.61 20.36 5.71Q20.61 5.80 20.86 5.94Q21.11 6.09 21.32 6.27Q21.53 6.44 21.64 6.59L21.64 6.59Q21.49 6.75 21.24 7.02Q20.99 7.29 20.75 7.59Q20.51 7.90 20.31 8.16Q20.12 8.43 20.06 8.54L20.06 8.54Q19.89 8.51 19.77 8.39Q19.64 8.27 19.64 8.16ZM35.35 10.88L35.35 10.88Q35.13 10.89 34.80 11.16Q34.48 11.44 34.11 11.87Q33.74 12.29 33.34 12.81Q32.94 13.33 32.57 13.84Q32.20 14.35 31.88 14.80Q31.56 15.25 31.33 15.51L31.33 15.51Q31.02 15.39 30.80 15.14Q30.58 14.90 30.48 14.53L30.48 14.53Q30.55 14.10 30.67 13.63Q30.80 13.16 31.00 12.66Q31.21 12.15 31.51 11.60Q31.81 11.05 32.24 10.43L32.24 10.43Q32.03 10.44 31.67 10.73Q31.30 11.02 30.88 11.47Q30.46 11.93 30.02 12.50Q29.57 13.06 29.18 13.61L29.18 13.61Q28.66 14.34 28.31 14.88Q27.97 15.43 27.82 15.53L27.82 15.53Q27.45 15.26 27.31 14.95Q27.17 14.64 27.10 14.27L27.10 14.27Q27.12 13.93 27.21 13.43Q27.30 12.92 27.47 12.39L27.47 12.39Q27.79 11.37 28.30 10.36Q28.81 9.35 29.29 8.51L29.29 8.51Q29.68 8.60 29.99 8.78Q30.31 8.96 30.66 9.31L30.66 9.31Q30.52 9.74 30.23 10.23Q29.93 10.71 29.61 11.24Q29.29 11.77 29.02 12.33Q28.76 12.89 28.67 13.47L28.67 13.47Q29.06 12.91 29.60 12.18Q30.14 11.45 30.71 10.81Q31.28 10.16 31.84 9.72Q32.40 9.27 32.84 9.27L32.84 9.27Q33.01 9.27 33.21 9.32Q33.40 9.38 33.57 9.46Q33.74 9.55 33.85 9.63Q33.96 9.70 33.98 9.74L33.98 9.74Q33.91 10.02 33.65 10.51Q33.39 10.99 33.10 11.52Q32.80 12.05 32.55 12.55Q32.30 13.05 32.26 13.34L32.26 13.34Q32.94 12.40 33.54 11.64Q34.15 10.88 34.68 10.33Q35.21 9.79 35.66 9.49Q36.12 9.20 36.53 9.20L36.53 9.20Q36.81 9.20 37.05 9.34Q37.30 9.49 37.39 9.77L37.39 9.77Q37.27 10.19 36.98 10.78Q36.69 11.37 36.40 12.02Q36.11 12.67 35.88 13.30Q35.64 13.93 35.64 14.43L35.64 14.43Q35.64 14.73 35.73 14.82Q35.81 14.91 35.97 14.91L35.97 14.91Q36.13 14.91 36.28 14.85Q36.43 14.78 36.50 14.78L36.50 14.78Q36.58 14.84 36.60 14.92Q36.61 15.01 36.61 15.08L36.61 15.08Q36.33 15.30 36.04 15.45Q35.74 15.60 35.38 15.60L35.38 15.60Q35.04 15.60 34.83 15.48Q34.61 15.37 34.47 15.18Q34.33 14.98 34.27 14.73Q34.22 14.48 34.22 14.18L34.22 14.18Q34.22 13.71 34.34 13.24Q34.47 12.77 34.64 12.34Q34.82 11.91 35.01 11.54Q35.21 11.17 35.35 10.88ZM44.98 14.24L44.98 14.24Q44.98 14.11 45.00 13.92Q45.02 13.73 45.08 13.42Q45.14 13.10 45.23 12.66Q45.32 12.21 45.46 11.58L45.46 11.58Q45.49 11.44 45.58 11.13Q45.68 10.82 45.84 10.48Q46.00 10.14 46.23 9.81Q46.47 9.49 46.79 9.34L46.79 9.34Q47.03 9.39 47.42 9.63Q47.81 9.86 48.09 10.26L48.09 10.26Q47.77 10.63 47.55 10.99Q47.33 11.35 47.16 11.75Q46.98 12.14 46.84 12.56Q46.69 12.98 46.51 13.44L46.51 13.44Q46.35 13.83 46.23 14.25Q46.10 14.66 46.09 14.97L46.09 14.97Q46.09 15.22 46.08 15.32Q46.07 15.43 46.00 15.43L46.00 15.43Q45.95 15.43 45.78 15.36Q45.61 15.29 45.44 15.14Q45.26 14.99 45.12 14.77Q44.98 14.55 44.98 14.24ZM47.66 8.16L47.66 8.16Q47.66 8.08 47.70 7.91L47.70 7.91Q47.63 7.84 47.58 7.70Q47.53 7.56 47.53 7.45L47.53 7.45Q47.53 7.32 47.56 7.11Q47.60 6.89 47.66 6.64Q47.71 6.38 47.80 6.11Q47.88 5.84 47.96 5.61L47.96 5.61Q48.13 5.61 48.38 5.71Q48.62 5.80 48.87 5.94Q49.13 6.09 49.34 6.27Q49.55 6.44 49.66 6.59L49.66 6.59Q49.50 6.75 49.25 7.02Q49 7.29 48.76 7.59Q48.52 7.90 48.33 8.16Q48.13 8.43 48.08 8.54L48.08 8.54Q47.91 8.51 47.78 8.39Q47.66 8.27 47.66 8.16ZM57.54 8.39L57.54 8.39Q57.90 8.50 58.23 8.88Q58.55 9.27 58.70 9.73L58.70 9.73Q58.55 10.11 58.23 10.64Q57.90 11.17 57.58 11.72Q57.26 12.28 57.00 12.78Q56.74 13.27 56.70 13.59L56.70 13.59Q56.92 13.36 57.20 13.04Q57.47 12.73 57.73 12.41Q57.99 12.10 58.21 11.84Q58.44 11.58 58.56 11.45L58.56 11.45Q58.83 11.17 59.19 10.80Q59.56 10.43 59.95 10.10Q60.35 9.77 60.76 9.54Q61.17 9.31 61.50 9.31L61.50 9.31Q61.87 9.31 62.11 9.55Q62.36 9.80 62.50 10.07L62.50 10.07Q62.50 10.09 62.39 10.14Q62.29 10.19 62.09 10.42L62.09 10.42Q61.89 10.67 61.65 11.11Q61.40 11.55 61.17 12.06Q60.94 12.57 60.79 13.10Q60.63 13.64 60.63 14.07L60.63 14.07Q60.63 14.42 60.73 14.52Q60.82 14.62 60.98 14.62L60.98 14.62Q61.14 14.62 61.31 14.55Q61.47 14.48 61.57 14.48L61.57 14.48Q61.63 14.50 61.66 14.60Q61.70 14.69 61.70 14.76L61.70 14.76Q61.59 14.85 61.43 14.95Q61.28 15.05 61.11 15.13Q60.94 15.22 60.78 15.27Q60.62 15.33 60.49 15.33L60.49 15.33Q60.09 15.33 59.83 15.21Q59.57 15.09 59.42 14.90Q59.28 14.70 59.22 14.43Q59.16 14.15 59.16 13.85L59.16 13.85Q59.16 13.68 59.19 13.47Q59.22 13.26 59.30 12.97Q59.39 12.68 59.54 12.29Q59.70 11.89 59.93 11.33L59.93 11.33Q59.91 11.33 59.56 11.52Q59.21 11.72 58.80 12.12L58.80 12.12Q58.14 12.75 57.62 13.37Q57.09 13.99 56.55 14.74L56.55 14.74Q56.24 15.18 56.01 15.48Q55.78 15.78 55.61 15.88L55.61 15.88Q55.31 15.71 55.17 15.41Q55.03 15.11 54.96 14.78L54.96 14.78Q54.96 14.52 55.04 14.11Q55.12 13.71 55.25 13.21Q55.38 12.71 55.58 12.17Q55.78 11.62 56.01 11.07L56.01 11.07Q56.55 9.84 56.99 9.14Q57.43 8.44 57.54 8.39ZM67.00 19.35L67.00 19.35Q67.00 19.26 67.06 19.19Q67.12 19.12 67.19 19.05L67.19 19.05Q67.35 19.21 67.47 19.29Q67.59 19.38 67.70 19.43Q67.80 19.49 67.91 19.50Q68.03 19.52 68.18 19.52L68.18 19.52Q68.91 19.52 69.57 19.13Q70.22 18.75 70.81 18.02Q71.39 17.29 71.86 16.24Q72.34 15.19 72.70 13.86L72.70 13.86Q72.53 14.03 72.29 14.23Q72.04 14.43 71.78 14.62Q71.51 14.80 71.25 14.95Q70.99 15.11 70.81 15.18L70.81 15.18Q70.57 15.13 70.37 14.97Q70.17 14.81 70.01 14.57Q69.86 14.34 69.78 14.04Q69.69 13.73 69.69 13.40L69.69 13.40Q69.69 12.85 69.90 12.28Q70.10 11.70 70.43 11.15Q70.77 10.60 71.23 10.11Q71.68 9.62 72.19 9.25Q72.70 8.89 73.23 8.67Q73.75 8.46 74.26 8.46L74.26 8.46Q74.75 8.46 74.99 8.66Q75.24 8.86 75.35 9.35L75.35 9.35Q75.19 9.27 74.96 9.27L74.96 9.27Q74.62 9.27 74.18 9.53Q73.74 9.80 73.28 10.23Q72.83 10.65 72.38 11.21Q71.93 11.76 71.59 12.33Q71.25 12.91 71.03 13.45Q70.81 14 70.81 14.43L70.81 14.43Q70.81 14.53 70.83 14.55Q70.84 14.57 70.87 14.57L70.87 14.57Q70.99 14.57 71.21 14.43Q71.43 14.29 71.70 14.08Q71.97 13.86 72.27 13.57Q72.56 13.29 72.83 12.99L72.83 12.99Q73.43 12.32 73.93 11.49Q74.42 10.65 74.72 9.87L74.72 9.87Q75.10 9.90 75.39 10.00Q75.68 10.09 75.80 10.21L75.80 10.21Q75.32 11.30 75.03 12.04Q74.75 12.78 74.54 13.36L74.54 13.36Q74.16 14.36 73.83 15.20Q73.50 16.03 73.16 16.74Q72.81 17.44 72.42 18.05Q72.02 18.66 71.51 19.22L71.51 19.22Q71.27 19.49 70.97 19.69Q70.67 19.89 70.36 20.03Q70.04 20.17 69.74 20.24Q69.44 20.31 69.19 20.31L69.19 20.31Q68.85 20.31 68.50 20.24Q68.15 20.16 67.85 20.03Q67.55 19.89 67.33 19.72Q67.10 19.54 67.00 19.35ZM94.23 19.22L94.23 19.22Q93.88 19.08 93.81 18.69L93.81 18.69Q93.76 18.31 93.34 18.07L93.34 18.07Q93.45 17.36 93.59 16.63Q93.73 15.90 93.95 14.97Q94.16 14.04 94.49 12.80Q94.82 11.56 95.33 9.80L95.33 9.80Q94.86 9.80 94.60 9.81Q94.33 9.83 94.08 9.87L94.08 9.87Q94.02 9.81 93.99 9.72Q93.95 9.62 93.95 9.53L93.95 9.53Q94.09 9.48 94.53 9.39Q94.96 9.30 95.48 9.23L95.48 9.23Q95.82 8.16 96.25 7.32Q96.68 6.47 97.19 5.87Q97.69 5.26 98.25 4.94Q98.81 4.62 99.39 4.62L99.39 4.62Q99.55 4.62 99.71 4.64Q99.86 4.66 99.95 4.66L99.95 4.66Q100.07 4.56 100.28 4.49Q100.49 4.41 100.65 4.41L100.65 4.41Q100.81 4.41 101.08 4.59L101.08 4.59Q100.97 4.79 100.84 5.12Q100.72 5.46 100.63 5.78L100.63 5.78Q100.28 6.82 99.89 7.13L99.89 7.13Q99.74 7.13 99.72 6.72L99.72 6.72Q99.71 6.43 99.64 6.15L99.64 6.15Q99.58 6.02 99.56 5.92Q99.54 5.82 99.54 5.67L99.54 5.67Q99.54 5.59 99.55 5.47Q99.57 5.35 99.61 5.07L99.61 5.07Q99.37 5.07 99.08 5.36Q98.80 5.66 98.48 6.20Q98.17 6.73 97.85 7.48Q97.52 8.22 97.23 9.11L97.23 9.11L98.41 9.07Q98.48 9.14 98.52 9.39Q98.57 9.63 98.59 9.90L98.59 9.90L97.05 9.81Q96.52 11.40 96.05 12.84Q95.59 14.28 95.23 15.50Q94.86 16.72 94.60 17.68Q94.35 18.63 94.23 19.22ZM106.85 15.67L106.85 15.67Q106.05 15.58 105.57 14.97Q105.10 14.35 105.10 13.40L105.10 13.40Q105.10 12.84 105.27 12.24Q105.43 11.63 105.74 11.07Q106.05 10.50 106.47 10.00Q106.89 9.49 107.38 9.13L107.38 9.13Q108.15 8.55 108.82 8.55L108.82 8.55Q109.27 8.79 109.70 9.55L109.70 9.55Q109.77 9.55 109.83 9.54Q109.89 9.53 109.96 9.53L109.96 9.53Q110.70 9.53 110.70 10.85L110.70 10.85Q110.70 11.73 110.41 12.52Q110.12 13.31 109.61 13.96Q109.10 14.60 108.39 15.04Q107.69 15.48 106.85 15.67ZM107.56 11.26L107.56 11.26Q107.32 11.58 107.11 11.96Q106.90 12.33 106.75 12.72Q106.60 13.10 106.51 13.46Q106.43 13.82 106.43 14.10L106.43 14.10Q106.43 14.43 106.54 14.74Q106.65 15.05 106.79 15.09L106.79 15.09Q107.42 14.95 107.95 14.57Q108.47 14.18 108.86 13.61Q109.24 13.03 109.46 12.31Q109.68 11.58 109.68 10.75L109.68 10.75Q109.68 10.39 109.63 10.18Q109.59 9.97 109.49 9.81L109.49 9.81Q108.88 10.00 108.39 10.40Q107.91 10.81 107.56 11.26ZM118.03 14.90L118.03 14.90Q118.10 14.49 118.28 13.82Q118.45 13.16 118.69 12.41Q118.93 11.66 119.20 10.91Q119.46 10.15 119.71 9.55L119.71 9.55Q119.90 9.11 120.04 8.87Q120.18 8.62 120.34 8.46L120.34 8.46Q120.54 8.48 120.75 8.55Q120.96 8.62 121.16 8.72Q121.35 8.82 121.51 8.93Q121.66 9.03 121.74 9.13L121.74 9.13Q121.37 9.58 121.08 10.15Q120.79 10.72 120.50 11.62L120.50 11.62Q121.25 10.95 121.84 10.33Q122.42 9.72 122.92 8.96L122.92 8.96Q123.00 8.89 123.21 8.89L123.21 8.89Q123.41 8.89 123.59 8.95Q123.77 9.02 123.84 9.13L123.84 9.13Q123.59 9.80 123.59 10.46L123.59 10.46Q123.59 11.07 123.77 11.38L123.77 11.38Q123.76 11.47 123.59 11.70Q123.41 11.94 123.20 12.15L123.20 12.15Q122.82 11.96 122.53 11.61Q122.23 11.27 122.09 10.86L122.09 10.86Q121.44 11.33 120.97 11.77Q120.51 12.21 120.18 12.75Q119.85 13.29 119.62 13.99Q119.39 14.69 119.18 15.65L119.18 15.65Q119.06 15.64 118.88 15.56Q118.71 15.48 118.53 15.37Q118.36 15.26 118.22 15.13Q118.08 15.01 118.03 14.90ZM147.18 9.21L147.18 9.21Q147.64 9.21 147.90 9.46Q148.16 9.72 148.16 10.16L148.16 10.16Q148.16 10.28 148.14 10.39Q148.12 10.51 148.09 10.60L148.09 10.60Q147.91 10.57 147.69 10.55Q147.46 10.53 147.15 10.53L147.15 10.53Q146.55 10.53 145.94 10.63Q145.32 10.74 144.76 10.81L144.76 10.81Q144.44 11.55 144.17 12.24Q143.91 12.94 143.72 13.51Q143.53 14.08 143.42 14.50Q143.32 14.92 143.30 15.13L143.30 15.13Q144.44 14.90 145.59 14.73Q146.75 14.56 148.02 14.48L148.02 14.48Q148.18 14.71 148.28 14.99Q148.39 15.27 148.39 15.60L148.39 15.60Q148.39 15.68 148.39 15.78Q148.39 15.88 148.36 15.97L148.36 15.97Q147.97 15.96 147.53 15.95Q147.10 15.95 146.40 15.95L146.40 15.95Q145.94 15.95 145.52 15.97Q145.11 15.99 144.69 16.03Q144.27 16.07 143.80 16.14Q143.33 16.21 142.74 16.31L142.74 16.31Q142.10 16.06 141.50 15.08L141.50 15.08Q141.74 14.57 142.16 13.54Q142.59 12.52 143.25 10.79L143.25 10.79Q142.62 10.60 142.42 10.09L142.42 10.09Q142.49 10.02 142.83 9.92Q143.16 9.81 143.65 9.70L143.65 9.70Q143.86 9.16 144.01 8.75Q144.16 8.34 144.27 7.99Q144.38 7.63 144.47 7.29Q144.56 6.94 144.65 6.54L144.65 6.54Q144.16 6.51 143.88 6.27Q143.60 6.02 143.60 5.63L143.60 5.63Q143.60 5.52 143.63 5.36Q143.67 5.21 143.71 5.10L143.71 5.10Q143.99 5.14 144.25 5.15Q144.51 5.17 144.93 5.17L144.93 5.17Q145.81 5.17 146.58 5.12Q147.35 5.07 147.97 5.01Q148.60 4.96 149.04 4.91Q149.49 4.86 149.73 4.86L149.73 4.86Q150.05 4.86 150.30 5.19Q150.56 5.53 150.68 6.15L150.68 6.15Q150.25 6.10 149.97 6.09Q149.70 6.08 149.49 6.08L149.49 6.08Q148.72 6.08 148.08 6.15Q147.45 6.23 146.86 6.31L146.86 6.31Q146.78 6.44 146.67 6.64Q146.57 6.83 146.40 7.18Q146.23 7.53 145.98 8.06Q145.74 8.60 145.39 9.39L145.39 9.39Q145.92 9.31 146.39 9.26Q146.86 9.21 147.18 9.21ZM161.22 15.09L161.22 15.09Q161.07 15.33 160.74 15.48Q160.41 15.62 160.12 15.65L160.12 15.65Q159.88 15.37 159.59 14.89Q159.29 14.41 159.03 13.76L159.03 13.76Q158.31 14.41 157.60 14.93Q156.88 15.46 156.27 15.82L156.27 15.82Q156.11 15.79 156.02 15.65Q155.92 15.51 155.90 15.29L155.90 15.29Q156.18 15.13 156.57 14.88Q156.95 14.63 157.35 14.33Q157.75 14.03 158.12 13.70Q158.49 13.37 158.76 13.06L158.76 13.06Q158.52 12.50 158.32 11.91Q158.12 11.31 157.97 10.76Q157.82 10.21 157.74 9.75Q157.65 9.30 157.65 9.02L157.65 9.02Q157.65 8.82 157.70 8.76Q157.75 8.69 157.93 8.69L157.93 8.69Q158.07 8.69 158.28 8.72Q158.48 8.75 158.69 8.79Q158.90 8.83 159.11 8.88Q159.32 8.93 159.47 8.99L159.47 8.99Q159.45 9.14 159.45 9.25Q159.45 9.37 159.45 9.58L159.45 9.58Q159.45 10.12 159.54 10.69Q159.63 11.26 159.84 11.91L159.84 11.91Q160.41 11.26 160.90 10.45Q161.39 9.65 161.90 8.53L161.90 8.53Q162.25 8.60 162.50 8.73Q162.75 8.86 162.82 9.02L162.82 9.02Q162.67 9.66 161.95 10.64Q161.24 11.62 160.13 12.73L160.13 12.73Q160.33 13.26 160.61 13.85Q160.89 14.45 161.22 15.09ZM169.82 12.71L169.82 12.71Q169.82 11.91 170.15 11.16Q170.48 10.42 171.02 9.84Q171.56 9.25 172.25 8.90Q172.94 8.54 173.68 8.54L173.68 8.54Q174.41 8.54 174.80 8.90Q175.20 9.27 175.20 9.94L175.20 9.94Q175.20 10.26 175.10 10.56Q175.01 10.86 174.87 11.10Q174.72 11.34 174.52 11.49Q174.33 11.63 174.13 11.63L174.13 11.63Q173.96 11.63 173.79 11.53Q173.61 11.42 173.50 11.26L173.50 11.26Q174.44 10.40 174.44 9.70L174.44 9.70Q174.44 9.30 174.12 9.30L174.12 9.30Q173.84 9.30 173.42 9.56Q173.00 9.83 172.61 10.26L172.61 10.26Q172.00 10.93 171.69 11.75Q171.37 12.57 171.37 13.47L171.37 13.47Q171.37 14.60 171.88 14.83L171.88 14.83Q172.09 14.80 172.37 14.70Q172.65 14.60 172.97 14.44Q173.29 14.28 173.63 14.07Q173.98 13.86 174.30 13.62L174.30 13.62Q174.36 13.66 174.40 13.75Q174.44 13.83 174.44 13.90L174.44 13.90Q174.20 14.20 173.89 14.48Q173.59 14.76 173.25 14.99Q172.91 15.22 172.60 15.38Q172.28 15.54 172.05 15.58L172.05 15.58Q171.58 15.54 171.18 15.29Q170.77 15.05 170.47 14.66Q170.17 14.27 169.99 13.76Q169.82 13.26 169.82 12.71ZM187.63 9.38L187.63 9.38Q187.57 10.25 187.32 10.87Q187.07 11.49 186.60 11.96Q186.13 12.43 185.46 12.81Q184.79 13.19 183.89 13.54L183.89 13.54Q183.89 13.62 183.88 13.71Q183.88 13.80 183.88 13.90L183.88 13.90Q183.88 14.08 183.90 14.28Q183.93 14.48 184.00 14.64Q184.07 14.81 184.20 14.92Q184.32 15.02 184.52 15.02L184.52 15.02Q184.90 15.02 185.26 14.85Q185.63 14.69 185.95 14.44Q186.28 14.20 186.57 13.91Q186.86 13.62 187.08 13.38L187.08 13.38Q187.22 13.51 187.32 13.62L187.32 13.62Q186.69 14.46 185.94 15.02Q185.19 15.57 184.52 15.72L184.52 15.72Q183.55 15.61 183.01 15.02Q182.48 14.42 182.48 13.58L182.48 13.58Q182.48 13.01 182.64 12.41Q182.80 11.82 183.08 11.26Q183.37 10.71 183.76 10.22Q184.14 9.73 184.58 9.37Q185.02 9.00 185.49 8.79Q185.96 8.58 186.42 8.58L186.42 8.58Q187.07 8.67 187.63 9.38ZM186.66 9.84L186.66 9.84Q186.28 9.90 185.88 10.15Q185.47 10.40 185.11 10.82Q184.76 11.24 184.46 11.80Q184.17 12.36 184.00 13.01L184.00 13.01Q185.12 12.45 185.86 11.63Q186.61 10.81 186.66 9.84ZM195.26 14.28L195.26 14.28Q195.26 13.66 195.55 12.55Q195.85 11.44 196.38 9.95L196.38 9.95Q197.25 7.59 198.01 6.01Q198.77 4.44 199.50 3.56L199.50 3.56Q199.67 3.58 199.91 3.70Q200.16 3.81 200.40 3.94Q200.63 4.07 200.82 4.21Q201.01 4.35 201.07 4.44L201.07 4.44Q199.98 5.73 199.15 7.21Q198.32 8.69 197.64 10.61L197.64 10.61Q197.05 12.26 196.74 13.59Q196.43 14.91 196.43 15.79L196.43 15.79Q196.43 16.03 196.43 16.09Q196.43 16.14 196.45 16.20L196.45 16.20Q196.25 16.17 196.11 16.10Q195.97 16.03 195.93 15.93L195.93 15.93Q195.90 15.86 195.78 15.73Q195.65 15.60 195.55 15.53L195.55 15.53Q195.43 15.44 195.34 15.09Q195.26 14.73 195.26 14.28ZM205.56 14.28L205.56 14.28Q205.56 13.66 205.86 12.55Q206.15 11.44 206.68 9.95L206.68 9.95Q207.55 7.59 208.31 6.01Q209.08 4.44 209.80 3.56L209.80 3.56Q209.97 3.58 210.22 3.70Q210.46 3.81 210.70 3.94Q210.94 4.07 211.13 4.21Q211.32 4.35 211.37 4.44L211.37 4.44Q210.28 5.73 209.45 7.21Q208.63 8.69 207.94 10.61L207.94 10.61Q207.35 12.26 207.05 13.59Q206.74 14.91 206.74 15.79L206.74 15.79Q206.74 16.03 206.74 16.09Q206.74 16.14 206.75 16.20L206.75 16.20Q206.56 16.17 206.42 16.10Q206.28 16.03 206.23 15.93L206.23 15.93Q206.21 15.86 206.08 15.73Q205.95 15.60 205.86 15.53L205.86 15.53Q205.73 15.44 205.65 15.09Q205.56 14.73 205.56 14.28ZM220.84 9.38L220.84 9.38Q220.78 10.25 220.53 10.87Q220.28 11.49 219.81 11.96Q219.34 12.43 218.67 12.81Q217.99 13.19 217.10 13.54L217.10 13.54Q217.10 13.62 217.09 13.71Q217.08 13.80 217.08 13.90L217.08 13.90Q217.08 14.08 217.11 14.28Q217.14 14.48 217.21 14.64Q217.28 14.81 217.41 14.92Q217.53 15.02 217.73 15.02L217.73 15.02Q218.11 15.02 218.47 14.85Q218.83 14.69 219.16 14.44Q219.49 14.20 219.78 13.91Q220.07 13.62 220.29 13.38L220.29 13.38Q220.43 13.51 220.53 13.62L220.53 13.62Q219.90 14.46 219.15 15.02Q218.40 15.57 217.73 15.72L217.73 15.72Q216.76 15.61 216.22 15.02Q215.68 14.42 215.68 13.58L215.68 13.58Q215.68 13.01 215.84 12.41Q216.01 11.82 216.29 11.26Q216.58 10.71 216.96 10.22Q217.35 9.73 217.79 9.37Q218.23 9.00 218.70 8.79Q219.17 8.58 219.63 8.58L219.63 8.58Q220.28 8.67 220.84 9.38ZM219.87 9.84L219.87 9.84Q219.49 9.90 219.09 10.15Q218.68 10.40 218.32 10.82Q217.97 11.24 217.67 11.80Q217.38 12.36 217.21 13.01L217.21 13.01Q218.33 12.45 219.07 11.63Q219.81 10.81 219.87 9.84ZM230.75 8.39L230.75 8.39Q231.11 8.50 231.43 8.88Q231.76 9.27 231.91 9.73L231.91 9.73Q231.76 10.11 231.43 10.64Q231.11 11.17 230.79 11.72Q230.47 12.28 230.21 12.78Q229.95 13.27 229.91 13.59L229.91 13.59Q230.13 13.36 230.40 13.04Q230.68 12.73 230.94 12.41Q231.20 12.10 231.42 11.84Q231.64 11.58 231.77 11.45L231.77 11.45Q232.04 11.17 232.40 10.80Q232.76 10.43 233.16 10.10Q233.56 9.77 233.97 9.54Q234.37 9.31 234.71 9.31L234.71 9.31Q235.07 9.31 235.32 9.55Q235.56 9.80 235.70 10.07L235.70 10.07Q235.70 10.09 235.60 10.14Q235.49 10.19 235.30 10.42L235.30 10.42Q235.10 10.67 234.86 11.11Q234.61 11.55 234.38 12.06Q234.15 12.57 234.00 13.10Q233.84 13.64 233.84 14.07L233.84 14.07Q233.84 14.42 233.93 14.52Q234.02 14.62 234.19 14.62L234.19 14.62Q234.35 14.62 234.51 14.55Q234.68 14.48 234.78 14.48L234.78 14.48Q234.84 14.50 234.87 14.60Q234.91 14.69 234.91 14.76L234.91 14.76Q234.79 14.85 234.64 14.95Q234.49 15.05 234.32 15.13Q234.15 15.22 233.99 15.27Q233.83 15.33 233.70 15.33L233.70 15.33Q233.30 15.33 233.04 15.21Q232.78 15.09 232.63 14.90Q232.48 14.70 232.43 14.43Q232.37 14.15 232.37 13.85L232.37 13.85Q232.37 13.68 232.40 13.47Q232.43 13.26 232.51 12.97Q232.60 12.68 232.75 12.29Q232.90 11.89 233.14 11.33L233.14 11.33Q233.11 11.33 232.76 11.52Q232.41 11.72 232.01 12.12L232.01 12.12Q231.35 12.75 230.82 13.37Q230.30 13.99 229.75 14.74L229.75 14.74Q229.45 15.18 229.21 15.48Q228.98 15.78 228.82 15.88L228.82 15.88Q228.52 15.71 228.38 15.41Q228.24 15.11 228.17 14.78L228.17 14.78Q228.17 14.52 228.25 14.11Q228.33 13.71 228.46 13.21Q228.59 12.71 228.79 12.17Q228.98 11.62 229.22 11.07L229.22 11.07Q229.75 9.84 230.19 9.14Q230.64 8.44 230.75 8.39ZM243.12 12.71L243.12 12.71Q243.12 11.91 243.45 11.16Q243.78 10.42 244.32 9.84Q244.86 9.25 245.55 8.90Q246.25 8.54 246.99 8.54L246.99 8.54Q247.72 8.54 248.11 8.90Q248.50 9.27 248.50 9.94L248.50 9.94Q248.50 10.26 248.41 10.56Q248.32 10.86 248.17 11.10Q248.02 11.34 247.83 11.49Q247.63 11.63 247.44 11.63L247.44 11.63Q247.27 11.63 247.09 11.53Q246.92 11.42 246.81 11.26L246.81 11.26Q247.74 10.40 247.74 9.70L247.74 9.70Q247.74 9.30 247.42 9.30L247.42 9.30Q247.14 9.30 246.72 9.56Q246.30 9.83 245.91 10.26L245.91 10.26Q245.31 10.93 244.99 11.75Q244.68 12.57 244.68 13.47L244.68 13.47Q244.68 14.60 245.18 14.83L245.18 14.83Q245.39 14.80 245.67 14.70Q245.95 14.60 246.27 14.44Q246.60 14.28 246.94 14.07Q247.28 13.86 247.60 13.62L247.60 13.62Q247.66 13.66 247.70 13.75Q247.74 13.83 247.74 13.90L247.74 13.90Q247.51 14.20 247.20 14.48Q246.89 14.76 246.55 14.99Q246.22 15.22 245.90 15.38Q245.59 15.54 245.35 15.58L245.35 15.58Q244.89 15.54 244.48 15.29Q244.08 15.05 243.77 14.66Q243.47 14.27 243.30 13.76Q243.12 13.26 243.12 12.71ZM260.93 9.38L260.93 9.38Q260.88 10.25 260.62 10.87Q260.37 11.49 259.90 11.96Q259.43 12.43 258.76 12.81Q258.09 13.19 257.19 13.54L257.19 13.54Q257.19 13.62 257.19 13.71Q257.18 13.80 257.18 13.90L257.18 13.90Q257.18 14.08 257.21 14.28Q257.24 14.48 257.31 14.64Q257.38 14.81 257.50 14.92Q257.63 15.02 257.82 15.02L257.82 15.02Q258.20 15.02 258.57 14.85Q258.93 14.69 259.26 14.44Q259.59 14.20 259.88 13.91Q260.16 13.62 260.39 13.38L260.39 13.38Q260.53 13.51 260.62 13.62L260.62 13.62Q259.99 14.46 259.25 15.02Q258.50 15.57 257.82 15.72L257.82 15.72Q256.86 15.61 256.32 15.02Q255.78 14.42 255.78 13.58L255.78 13.58Q255.78 13.01 255.94 12.41Q256.10 11.82 256.39 11.26Q256.68 10.71 257.06 10.22Q257.45 9.73 257.89 9.37Q258.33 9.00 258.80 8.79Q259.27 8.58 259.73 8.58L259.73 8.58Q260.37 8.67 260.93 9.38ZM259.97 9.84L259.97 9.84Q259.59 9.90 259.18 10.15Q258.78 10.40 258.42 10.82Q258.06 11.24 257.77 11.80Q257.47 12.36 257.31 13.01L257.31 13.01Q258.43 12.45 259.17 11.63Q259.91 10.81 259.97 9.84Z"></path></g></svg>